<?xml version="1.0" encoding="utf-8"?>
<!-- Generator: Adobe Illustrator 27.5.0, SVG Export Plug-In . SVG Version: 6.00 Build 0)  -->
<svg version="1.1" id="Capa_1" xmlns="http://www.w3.org/2000/svg" xmlns:xlink="http://www.w3.org/1999/xlink" x="0px" y="0px"
	 viewBox="0 0 2122 2122" style="enable-background:new 0 0 2122 2122;" xml:space="preserve">
<g>
	<g>
		<path style="fill:#8A7AB7;" d="M1442.037,1240.703c-0.198-0.112-0.441-0.107-0.629,0.015
			c-22.67,14.134-45.673,27.147-68.377,38.67c-69.151,35.103-137.278,56.355-202.483,63.171
			c-37.637,3.927-73.278,3.406-105.933-1.573c-32.18-4.892-66.053-14.592-100.674-28.828
			c-61.834-25.422-117.906-60.648-183.075-105.719c-75.144-51.975-131.675-93.699-183.297-135.292
			c-61.381-49.447-114.569-97.553-162.6-147.069l-0.646-0.667c-13.663-14.085-27.79-28.648-41.354-43.595l-1.077-18.066
			c-0.025-0.341-0.317-0.604-0.661-0.585c-0.343,0.019-0.606,0.317-0.587,0.662l26.601,445.896c0.231,3.82,2.28,7.332,5.481,9.398
			c22.631,14.601,105.193,65.948,217.443,113.568c138.732,58.855,266.353,88.642,379.668,88.642c5.406,0,10.784-0.068,16.124-0.204
			c115.212-2.928,247.832-24.307,394.179-63.546c0.26-0.073,0.446-0.302,0.463-0.57l0.144-2.601
			c0.343-6.168,0.699-12.551,1.13-18.816c1.072-15.532,2.304-31.299,3.496-46.543c3.73-47.732,7.586-97.086,6.987-145.811
			C1442.359,1241.014,1442.234,1240.81,1442.037,1240.703z M463.77,1304.887c-3.569,0.312-7.591-1.988-7.9-6.596
			c-6.292-94.119-7.537-189.641-3.7-283.92c0.178-4.395,3.681-6.616,7.157-6.616c0.109,0,0.221,0,0.331,0.005
			c3.23,0.132,6.409,2.212,6.231,6.563c-3.836,94.318-2.592,189.889,3.705,284.056
			C469.894,1302.875,466.645,1304.697,463.77,1304.887z M1355.088,1436.881c-0.619,2.095-2.25,3.561-4.592,4.126
			c-52.847,12.716-122.64,28.614-193.835,38.704c-128.618,18.222-239.91,13.7-340.248-13.822
			c-107.843-29.583-207.95-82.406-304.76-133.484c-3.839-2.027-4.041-5.808-2.54-8.658c1.208-2.285,3.517-4.02,6.219-4.02
			c1.052,0,2.165,0.263,3.296,0.858c53.11,28.019,108.033,56.993,165.146,82.372c55.342,24.594,105.69,42.357,153.918,54.304
			c53.147,13.169,109.994,19.917,168.961,20.063c0.699,0,1.386,0.005,2.085,0.005c116.16-0.005,231.114-23.8,338.073-49.544
			c2.48-0.589,4.767,0.039,6.431,1.788C1355.071,1431.498,1355.811,1434.435,1355.088,1436.881z"/>
		<path style="fill:#8A7AB7;" d="M1711.474,1009.508c-0.239-0.112-0.536-0.054-0.721,0.141c-0.918,1.004-1.832,2.007-2.745,3.011
			c-1.388,1.52-2.777,3.045-4.18,4.555c-69.288,74.581-136.057,134.815-204.123,184.135c-0.175,0.127-0.27,0.336-0.255,0.55
			c0.282,4.176,0.55,8.356,0.77,12.546c2.972,56.838-1.581,114.284-5.983,169.845c-1.388,17.525-2.826,35.644-4.005,53.49
			c-0.014,0.2,0.073,0.4,0.232,0.526c0.112,0.088,0.251,0.136,0.39,0.136c0.058,0,0.119-0.01,0.178-0.024
			c87.782-25.934,152.035-50.124,169.635-56.92c4.151-1.598,7.062-5.355,7.596-9.793l43.571-361.561
			C1711.864,1009.879,1711.72,1009.62,1711.474,1009.508z M1640.893,1362.651l-93.587,26.557c-2.378,0.667-4.582,0.171-6.21-1.408
			c-1.858-1.807-2.677-4.726-2.034-7.27c0.57-2.255,2.207-3.873,4.606-4.555l93.588-26.562c0.709-0.2,1.381-0.292,2.013-0.292
			c3.223,0,5.393,2.402,6.138,5.033C1646.32,1357.369,1645.297,1361.398,1640.893,1362.651z M1658.966,1197.195
			c-4.553,35.742-9.26,72.706-13.03,109.168c-0.375,3.63-2.814,5.237-4.234,5.876c-2.495,1.115-5.468,0.911-7.403-0.483
			c-1.119-0.809-2.388-2.378-2.088-5.267c3.769-36.448,8.475-73.403,13.025-109.139c4.553-35.741,9.26-72.706,13.031-109.168
			c0.375-3.63,2.811-5.238,4.231-5.871c1.079-0.482,2.251-0.721,3.388-0.721c1.488,0,2.921,0.409,4.02,1.203
			c1.115,0.809,2.385,2.378,2.085,5.262C1668.223,1124.504,1663.516,1161.458,1658.966,1197.195z"/>
	</g>
	<g>
		<path style="fill:#675BA4;" d="M1717.628,959.429c-0.178-0.137-0.412-0.156-0.626-0.068l-239.238,107.098
			c-0.28,0.127-0.427,0.438-0.346,0.731c11.406,42.104,18.818,87.424,22.032,134.712c0.015,0.224,0.151,0.424,0.356,0.521
			c0.085,0.04,0.175,0.059,0.265,0.059c0.129,0,0.258-0.039,0.365-0.117c68.131-49.374,134.961-109.656,204.308-184.301
			c1.403-1.51,2.794-3.04,4.185-4.565c0.914-1.004,1.828-2.003,2.745-3.001c0.088-0.097,0.144-0.219,0.159-0.351l6.044-50.143
			C1717.903,959.784,1717.808,959.56,1717.628,959.429z"/>
		<path style="fill:#675BA4;" d="M1437.886,1169.132c-0.282-2.505-0.58-5.004-0.889-7.508l-0.241-1.929
			c-0.341-2.075-0.629-4.171-0.918-6.261c-0.241-1.744-0.482-3.488-0.753-5.227c-2.862-18.354-6.482-36.448-10.762-53.778
			c-0.132-0.526-0.27-1.053-0.41-1.579c-0.117-0.438-0.234-0.882-0.346-1.325c-0.044-0.18-0.166-0.331-0.331-0.409
			c-0.166-0.083-0.358-0.078-0.529-0.01l-338.671,151.609L391.571,861.242c-0.205-0.122-0.445-0.102-0.636,0.019
			c-0.193,0.122-0.302,0.336-0.29,0.565l1.091,18.285c0.01,0.142,0.066,0.273,0.161,0.38c13.622,15.021,27.81,29.647,41.53,43.79
			l0.645,0.663c48.068,49.554,101.293,97.694,162.712,147.175c51.649,41.607,108.201,83.351,183.37,135.341
			c65.237,45.12,121.375,80.384,183.314,105.845c34.714,14.28,68.682,24.005,100.959,28.916c18.317,2.787,37.561,4.18,57.571,4.18
			c15.781,0,32.039-0.867,48.682-2.606c65.356-6.826,133.626-28.122,202.917-63.298c22.735-11.542,45.773-24.57,68.469-38.719
			c0.185-0.117,0.297-0.321,0.295-0.541c-0.19-15.488-0.799-29.924-1.859-44.131
			C1439.801,1187.699,1438.921,1178.286,1437.886,1169.132z"/>
	</g>
	<path style="fill:#9E8EC3;" d="M2051.508,809.87l-935.083-467.752c-0.146-0.073-0.321-0.092-0.48-0.034L86.987,693.682
		c-0.234,0.078-0.397,0.287-0.419,0.536c-0.022,0.243,0.105,0.482,0.321,0.599l996.815,549.14c0.095,0.054,0.198,0.078,0.302,0.078
		c0.088,0,0.173-0.019,0.256-0.054l338.957-151.735c0.275-0.127,0.424-0.429,0.348-0.721c-4.236-16.775-9.128-33.057-14.54-48.399
		c-2.602-7.381-5.598-15.201-9.718-25.364l-0.994-2.29c-0.86-1.954-1.732-3.907-2.616-5.852c-1.762-3.878-3.603-7.785-5.472-11.615
		c-7.951-16.306-16.653-31.79-25.863-46.021c-4.273-6.601-8.809-13.174-13.479-19.527c-0.726-0.984-1.461-1.963-2.2-2.948
		l-1.771-2.334c-2.548-3.22-5.181-6.446-7.824-9.588c-10.243-12.161-21.269-23.78-32.772-34.533
		c-6.019-5.623-12.272-11.109-18.585-16.307c-1.715-1.408-3.437-2.801-5.174-4.175l-2.241-1.705
		c-2.266-1.695-4.536-3.396-6.84-5.042c-13.162-9.423-26.918-17.958-40.884-25.369c-6.962-3.693-14.061-7.152-21.096-10.28
		c-0.719-0.322-1.44-0.634-2.176-0.955l-0.877-0.356c-0.918-0.375-1.834-0.75-2.755-1.111c-3.686-1.457-7.517-2.889-11.391-4.253
		c-13.635-4.789-27.746-8.643-41.938-11.449c-0.1-0.01-0.203-0.015-0.305,0.019c-13.052,3.98-27.098,5.997-41.749,5.997
		c-49.829,0-90.37-23.639-90.37-52.696c0-29.052,40.541-52.691,90.37-52.691c48.45,0,88.937,22.996,90.247,51.264
		c0.012,0.258,0.185,0.487,0.436,0.565c43.554,13.803,85.229,36.443,123.867,67.293c52.694,42.066,95.722,99.098,124.433,164.934
		c11.089,25.427,20.55,52.492,28.126,80.453c0.049,0.18,0.171,0.326,0.334,0.404c0.166,0.073,0.353,0.073,0.524,0.005
		l573.21-256.602c0.219-0.097,0.363-0.316,0.368-0.555C2051.859,810.197,2051.725,809.978,2051.508,809.87z M1153.297,1158.608
		c64.401-23.142,128.484-48.842,190.466-76.38c3.367-1.491,5.998-0.166,7.269,0.76c2.21,1.608,3.528,4.278,3.277,6.636
		c-0.205,1.944-1.415,3.459-3.498,4.385c-63.69,28.302-128.949,54.499-193.959,77.86c-4.197,1.506-6.806-1.072-7.766-3.747
		C1147.85,1164.689,1148.905,1160.187,1153.297,1158.608z M1045.541,1152.192c0.002,0,0.002,0,0.002,0
		c2.117,1.13,3.323,2.938,3.396,5.101c0.085,2.534-1.376,5.184-3.637,6.592c-2.076,1.291-4.465,1.335-6.729,0.127L671.973,968.481
		c-10.524-5.613-21.057-11.206-31.59-16.803c-45.41-24.127-92.367-49.076-137.775-74.996c-30.361-17.335-60.806-35.858-90.25-53.768
		c-71.312-43.391-145.051-88.252-223.912-120.082c-4.339-1.749-5.443-6.49-4.003-10.056c0.772-1.914,2.48-3.742,5.035-3.742
		c0.753,0,1.581,0.156,2.477,0.521c66.197,26.714,127.66,61.705,179.058,92.414c15.781,9.427,31.764,19.113,47.218,28.487
		c35.6,21.578,72.413,43.898,109.373,64.599c43.771,24.511,88.828,48.438,132.403,71.571c12.901,6.85,25.803,13.7,38.691,20.575
		L1045.541,1152.192z M1111.292,388.915c-0.254,1.501-1.184,4.205-4.556,5.452l-784.97,291.281
		c-2.757,1.028-4.648,0.166-5.737-0.735c-1.871-1.55-2.821-4.39-2.365-7.069c0.256-1.501,1.186-4.205,4.558-5.457l784.97-291.281
		c0.894-0.331,1.695-0.468,2.409-0.468c1.491,0,2.589,0.595,3.328,1.203C1110.8,383.39,1111.75,386.235,1111.292,388.915z
		 M1460.061,573.756c-103.11-51.356-206.902-102.387-308.492-151.667c-4.01-1.949-3.986-5.622-2.745-8.176
		c1.184-2.441,3.676-4.385,6.604-4.385c1.009,0,2.073,0.234,3.15,0.755c61.261,29.719,122.294,59.561,181.406,88.696
		c81.948,40.389,170.488,84.501,278.643,138.83c27.941,14.036,55.878,28.087,83.812,42.138
		c60.087,30.221,122.22,61.47,183.404,92.062c3.786,1.89,4.071,5.549,2.677,8.341c-1.651,3.293-5.505,5.544-9.674,3.469
		c-54.209-27.113-107.122-53.7-151.733-76.131l-27.055-13.607C1621.449,654.545,1540.163,613.663,1460.061,573.756z
		 M1913.482,831.795c-0.368,2.694-2.01,4.818-4.506,5.842c-29.522,12.058-59.059,24.311-87.79,36.419
		c-102.15,43.055-205.669,89.144-307.678,136.988c-3.279,1.54-5.864,0.307-7.115-0.57c-2.232-1.554-3.591-4.224-3.386-6.64
		c0.119-1.403,0.821-3.338,3.478-4.58c29.434-13.807,58.828-27.396,87.366-40.394c101.846-46.387,206.69-91.638,311.62-134.503
		c0.879-0.356,1.725-0.536,2.523-0.536c1.109,0,2.124,0.346,3.009,1.028C1912.859,826.29,1913.855,829.081,1913.482,831.795z"/>
	<path style="fill:#5A4B9A;" d="M1110.308,701.433c-50.519,0-91.617,24.195-91.617,53.938c0,29.744,41.098,53.944,91.617,53.944
		c14.775,0,28.942-2.036,42.114-6.056c0.273-0.083,0.453-0.341,0.441-0.624c-0.015-0.288-0.222-0.526-0.502-0.58
		c-0.429-0.087-0.86-0.18-1.289-0.272c-0.612-0.132-1.223-0.264-1.837-0.38c-1.752-0.326-3.515-0.595-5.281-0.863
		c-1.92-0.292-3.902-0.594-5.827-0.969c-0.015,0-0.029-0.005-0.044-0.005l-1.249-0.151c-1.864-0.209-3.73-0.404-5.598-0.58
		c-7.503-0.707-15.413-1.111-23.51-1.213c-15.976-0.204-28.579-12.819-29.318-29.34c-0.324-7.196,2.541-14.294,8.061-20
		c5.727-5.91,13.333-9.281,20.916-9.281c0.11,0,0.217,0,0.327,0c8.365,0.107,16.555,0.541,24.338,1.291
		c23.033,2.236,46.226,7.021,68.942,14.217c0.193,0.063,0.41,0.024,0.568-0.102c0.161-0.122,0.253-0.317,0.244-0.521
		C1200.436,724.473,1160.249,701.433,1110.308,701.433z"/>
	<path style="fill:#FCC02B;" d="M1556.604,1736.45c-6.716-23.834-17.693-44-32.628-59.936
		c-10.533-11.235-21.964-19.849-33.079-24.936c-3.902-64.457-4.126-129.514-0.665-193.353c0.317-5.847,0.699-12.127,1.242-20.365
		c1.181-17.836,2.616-35.951,4.005-53.471c4.407-55.6,8.962-113.091,5.988-170.011c-0.219-4.19-0.49-8.38-0.775-12.565
		c-3.216-47.367-10.643-92.769-22.07-134.947c-7.591-28.024-17.074-55.147-28.185-80.628
		c-28.793-66.021-71.948-123.219-124.798-165.412c-38.759-30.947-80.572-53.661-124.272-67.507
		c-22.796-7.226-46.077-12.024-69.195-14.266c-7.82-0.76-16.044-1.193-24.446-1.301c-0.112,0-0.227,0-0.341,0
		c-7.92,0-15.851,3.508-21.812,9.661c-5.761,5.954-8.75,13.383-8.412,20.925c0.77,17.189,13.902,30.314,30.551,30.529
		c8.061,0.102,15.936,0.506,23.408,1.203c1.858,0.175,3.72,0.37,5.569,0.58l1.201,0.146c1.949,0.38,3.946,0.682,5.878,0.974
		c1.752,0.268,3.503,0.531,5.24,0.858c0.604,0.112,1.203,0.243,1.802,0.37c0.436,0.092,0.87,0.185,1.308,0.278
		c14.136,2.791,28.19,6.626,41.768,11.4c3.859,1.359,7.676,2.782,11.347,4.234c0.916,0.361,1.827,0.736,2.743,1.106l0.865,0.351
		c0.716,0.312,1.432,0.624,2.148,0.945c7.011,3.118,14.083,6.563,21.021,10.241c13.917,7.386,27.625,15.893,40.743,25.281
		c2.297,1.647,4.56,3.338,6.821,5.028l2.212,1.681c1.732,1.374,3.449,2.758,5.155,4.166c6.292,5.179,12.526,10.651,18.526,16.253
		c11.467,10.723,22.458,22.304,32.67,34.421c2.636,3.133,5.262,6.354,7.8,9.559l1.754,2.314c0.736,0.979,1.469,1.954,2.193,2.938
		c4.655,6.333,9.174,12.882,13.434,19.469c9.184,14.188,17.861,29.622,25.791,45.885c1.863,3.82,3.698,7.717,5.457,11.585
		c0.885,1.944,1.752,3.888,2.609,5.837l0.986,2.27c4.105,10.134,7.094,17.935,9.693,25.301c5.398,15.303,10.28,31.547,14.506,48.282
		c0.112,0.448,0.231,0.896,0.348,1.345c0.139,0.516,0.275,1.038,0.402,1.559c4.273,17.291,7.888,35.347,10.743,53.671
		c0.27,1.73,0.509,3.464,0.75,5.203c0.29,2.1,0.58,4.205,0.918,6.27l0.239,1.905c0.309,2.495,0.606,4.994,0.889,7.488
		c1.03,9.145,1.91,18.539,2.611,27.936c1.057,14.178,1.664,28.584,1.854,44.053c0.599,48.667-3.257,97.992-6.984,145.694
		c-1.191,15.25-2.424,31.016-3.493,46.553c-0.433,6.275-0.789,12.662-1.133,18.835l-0.146,2.602
		c-3.837,68.404-3.486,137.728,1.04,206.035c-29.97,24.633-43.98,71.01-47.096,106.269c-2.341,26.465,2.646,53.632,14.421,78.552
		c8.261,17.481,18.741,34.285,28.874,50.533c4.568,7.323,9.291,14.899,13.73,22.402c16.592,28.068,33.11,57.208,49.096,86.605
		c1.383,2.548,3.737,3.966,6.524,3.966c0.226,0,0.455-0.01,0.687-0.03c3.43-0.278,6.485-2.616,7.603-5.817
		c4.648-13.306,10.828-26.231,16.804-38.728c3.857-8.068,7.844-16.404,11.388-24.779c9.084-21.457,16.253-43.551,21.313-65.661
		C1566.06,1820.434,1566.998,1775.353,1556.604,1736.45z"/>
	<g>
		<path style="fill:#2D2D85;" d="M671.386,969.582l366.604,195.531c1.286,0.687,2.606,1.028,3.907,1.028
			c1.405,0,2.784-0.4,4.066-1.199c2.626-1.637,4.324-4.726,4.224-7.693c-0.09-2.626-1.53-4.814-4.059-6.158L699.283,966.098
			c-12.887-6.874-25.788-13.725-38.691-20.575c-43.568-23.133-88.62-47.05-132.379-71.561
			c-36.94-20.687-73.744-43.001-109.334-64.574c-15.459-9.374-31.442-19.065-47.227-28.492
			c-51.436-30.728-112.954-65.753-179.229-92.501c-4.492-1.817-7.827,0.663-9.137,3.912c-1.669,4.136-0.37,9.637,4.692,11.683
			c78.769,31.785,152.464,76.623,223.732,119.984c29.45,17.919,59.905,36.448,90.279,53.787
			c45.425,25.929,92.389,50.884,137.809,75.016C650.331,958.376,660.863,963.969,671.386,969.582z"/>
		<path style="fill:#2D2D85;" d="M1154.468,1173.561c0.87,0,1.808-0.161,2.806-0.521c65.038-23.366,130.323-49.573,194.042-77.89
			c2.478-1.101,3.98-3.016,4.231-5.394c0.297-2.787-1.225-5.914-3.783-7.776c-2.533-1.846-5.637-2.173-8.509-0.891
			c-61.955,27.527-126.009,53.213-190.383,76.35c-5.152,1.851-6.402,7.104-4.962,11.109
			C1148.895,1171.285,1151.206,1173.561,1154.468,1173.561z"/>
		<path style="fill:#2D2D85;" d="M1911.765,823.863c-1.861-1.442-4.263-1.671-6.768-0.662
			c-104.944,42.869-209.803,88.131-311.663,134.528c-28.543,12.994-57.941,26.587-87.38,40.394c-2.492,1.17-3.981,3.162-4.19,5.608
			c-0.243,2.845,1.33,5.968,3.915,7.766c1.442,1.004,3.062,1.515,4.714,1.515c1.218,0,2.453-0.277,3.647-0.838
			c101.994-47.834,205.496-93.919,307.63-136.969c28.728-12.107,58.26-24.355,87.78-36.414c2.919-1.193,4.84-3.678,5.269-6.825
			C1915.149,828.823,1913.962,825.564,1911.765,823.863z"/>
		<path style="fill:#2D2D85;" d="M319.362,687.358c0.914,0,1.866-0.18,2.838-0.541l784.97-291.281
			c2.891-1.072,4.843-3.405,5.352-6.411c0.529-3.104-0.594-6.421-2.796-8.244c-1.9-1.574-4.38-1.91-6.967-0.945l-784.97,291.281
			c-2.891,1.072-4.843,3.41-5.352,6.416c-0.529,3.104,0.597,6.416,2.796,8.239C316.422,686.856,317.835,687.358,319.362,687.358z"/>
		<path style="fill:#2D2D85;" d="M467.137,1014.371c0.21-5.179-3.703-7.707-7.428-7.859c-4.175-0.146-8.568,2.456-8.787,7.81
			c-3.837,94.318-2.592,189.889,3.705,284.056c0.343,5.15,4.582,7.776,8.613,7.776c0.205,0,0.41-0.004,0.612-0.019
			c3.722-0.249,7.323-2.772,6.984-7.844C464.545,1204.172,463.3,1108.65,467.137,1014.371z"/>
		<path style="fill:#2D2D85;" d="M1346.518,1426.577c-106.891,25.725-221.745,49.505-337.78,49.505c-0.692,0-1.391-0.005-2.08-0.005
			c-58.869-0.146-115.616-6.884-168.663-20.024c-48.161-11.932-98.44-29.67-153.714-54.236
			c-57.076-25.359-111.977-54.323-165.073-82.333c-4.748-2.504-9.228-0.053-11.196,3.683c-1.735,3.289-1.518,7.922,3.062,10.339
			c96.869,51.113,197.036,103.965,305.009,133.582c60.35,16.555,124.635,24.804,194.264,24.804
			c46.331,0,95.037-3.654,146.491-10.942c71.249-10.1,141.078-26.002,193.952-38.733c2.794-0.667,4.746-2.441,5.496-4.979
			c0.845-2.86-0.015-6.285-2.139-8.521C1352.162,1426.63,1349.458,1425.851,1346.518,1426.577z"/>
		<path style="fill:#2D2D85;" d="M1726.554,708.8c44.611,22.435,97.524,49.022,151.735,76.13c0.003,0,0.003,0,0.003,0
			c1.284,0.643,2.55,0.926,3.756,0.926c3.345,0,6.205-2.183,7.588-4.945c1.671-3.347,1.321-7.742-3.235-10.017
			c-61.181-30.591-123.315-61.841-183.401-92.062c-27.934-14.051-55.871-28.097-83.812-42.134
			c-108.157-54.333-196.703-98.45-278.653-138.839c-59.113-29.135-120.15-58.976-181.411-88.696
			c-4.935-2.402-9.564,0.38-11.42,4.205c-1.611,3.318-1.206,7.644,3.32,9.841c101.587,49.281,205.375,100.306,308.482,151.667
			c80.099,39.903,161.385,80.784,239.991,120.316L1726.554,708.8z"/>
		<path style="fill:#2D2D85;" d="M1636.915,1348.214l-93.588,26.562c-2.845,0.804-4.792,2.743-5.474,5.447
			c-0.748,2.963,0.204,6.363,2.373,8.468c1.399,1.359,3.138,2.061,5.045,2.061c0.767,0,1.564-0.117,2.375-0.346l93.588-26.557
			c4.994-1.418,6.485-6.125,5.374-10.036C1645.55,1350.095,1642.07,1346.733,1636.915,1348.214z"/>
		<path style="fill:#2D2D85;" d="M1670.637,1081.786c-2.286-1.657-5.759-1.9-8.648-0.614c-2.833,1.267-4.643,3.776-4.965,6.884
			c-3.768,36.448-8.475,73.403-13.025,109.139c-4.553,35.742-9.26,72.706-13.03,109.168c-0.28,2.714,0.643,4.989,2.597,6.402
			c1.311,0.95,3.008,1.432,4.762,1.432c1.308,0,2.65-0.268,3.883-0.823c2.836-1.267,4.646-3.776,4.967-6.884
			c3.769-36.448,8.475-73.403,13.025-109.139c4.553-35.741,9.26-72.706,13.031-109.168
			C1673.514,1085.469,1672.591,1083.198,1670.637,1081.786z"/>
	</g>
</g>
</svg>
